<?xml version="1.0" encoding="UTF-8"?>
<svg id="Capa_1" data-name="Capa 1" xmlns="http://www.w3.org/2000/svg" viewBox="0 0 477.71 504.58">
  <defs>
    <style>
      .cls-1 {
        fill: #1d1d1b;
      }

      .cls-2 {
        fill: #fff;
      }

      .cls-3 {
        fill: #3c3c3b;
      }
    </style>
  </defs>
  <g id="Objeto_generativo" data-name="Objeto generativo">
    <path class="cls-3" d="M48.36,309.48l-.65-35.98,54.11-46.49-.13-127.99,70.8.07V32.79s-139.39.07-139.39.07v195.15s17.55-15.01,17.55-15.01l.75-20.15c10.41,4.78,21.61,4.48,32.21.24l.1,29.37-67.94,58.28L.02,293.94.05.11l201.79-.11.19,75.89-.31,55.74-67.14-.03.11,103.73-86.34,74.15Z"/>
    <polygon class="cls-3" points="47.71 273.5 48.36 309.48 32.9 323.01 32.93 472.18 172.27 472.11 172.42 454.67 172.45 424.1 201.85 424.15 201.88 504.58 .02 504.46 0 314.58 47.71 273.5"/>
    <path class="cls-3" d="M101.57,284.09l32.98-28.32.11,117.43,100.62-.31c32.22-.1,60.94-16.68,81.75-40.38,19.13-22.24,29.13-49.7,29.53-80.01l30.68,21.44c-5.65,46.02-32.4,86.64-72.05,110.76-21.5,13.15-45.28,20.41-70.82,21.18l-132.63-.23-.16-121.56Z"/>
    <path class="cls-3" d="M219.34,504.36l.06-32.42c59.41,1.66,112.46-17.6,155.21-57.17,10.8-9.28,18.95-19.64,27.77-30.55,34.19-47.14,48.74-105.59,40.15-164.29l35.05,24.21c1.43,46.03-8.68,90.57-30.32,130.19-46.08,83.86-131.76,133.5-227.91,130.03Z"/>
    <path class="cls-3" d="M438.4,198.04c-4.94-20.03-12.41-37.74-21.92-55.56-11.03-19.59-24.88-36.93-41.24-52.27-42.2-38.61-97.43-59.47-155.88-57.3l-.02-32.77c28.68-.54,57.17,2.58,84.41,11.26,71.61,22.84,128.69,76.75,156.18,146.11,8.12,20.86,13.69,42.38,16.34,66.38l-37.88-25.85Z"/>
    <path class="cls-3" d="M396.63,232.13l1.16,12.73.32,20.42-1.22,2.69-52.25-36.2c-5.86-35.75-27.15-66.62-58.6-85.19-20.05-11.84-42.68-16.93-66.63-15.17l-.1-32.35,26.5.42c64.55,7.81,114.74,56.18,129.7,118.31l17.18,12.46c1.24.9,2.31,2.28,3.93,1.88Z"/>
    <path class="cls-1" d="M172.45,424.1l-.03,30.57c-.12.18-.8-.84-1.05-.84l-119.21.03-.11-94.42c-8.73-7.33-11.56-18.5-7.53-28.73,3.52-8.95,12.79-15.66,23.48-15.33,10.67.33,19.24,7.69,22.26,16.67,3.38,10.06.46,20.58-7.87,27.26l-.05,64.77,90.13.02ZM65.45,329.72c-6.27,1.2-9.65,6.85-8.44,12.57,1.11,5.21,6.26,8.84,11.59,7.93,5.94-1.02,9.59-6.01,8.78-11.91-.7-5.18-5.78-9.77-11.94-8.59Z"/>
    <path class="cls-1" d="M396.89,267.97l1.22-2.69-.32-20.42-1.16-12.73c-3.19-25.86-11.23-50.29-25.29-72.66-10.09-.2-18.5-6.23-22.06-14.28-4.26-9.62-1.99-19.97,5.06-27.17,8.06-8.25,20.82-9.59,30.21-3.73,9.55,5.95,13.75,17.17,10.41,28.08,34.56,53.61,41.44,121.89,19.16,182.16-7.51-7.67-16.3-11.71-26.18-13.27,4.96-14.25,8.13-29.24,8.95-43.29ZM368.08,125.54c-5.74,2.18-8.2,8.31-6.29,13.17,2.23,5.68,8.39,7.88,12.78,6.46,6.52-2.1,8.64-8.57,6.83-13.5-2.06-5.6-7.94-8.18-13.32-6.14Z"/>
    <path class="cls-1" d="M219.63,453.5l-.25-29.04c30.13,1.65,58.68-3.91,84.89-17.29,21.81-11.25,40.36-26.73,55.55-45.84-4.3-14.16,4.38-28.05,18.01-31.14,14.44-3.27,28.32,6.48,29.85,20.96,1.49,14.07-9.26,26.93-24.48,27.19-6.79,8.47-13.22,16.29-21.63,23.55-38.58,34.98-88.16,53.94-141.95,51.61ZM381.99,343.53c-6.32.86-10.04,6.53-8.78,12.69,1.04,5.11,6.24,9,11.93,7.99,5.57-1,9.37-6.01,8.48-12-.76-5.09-5.66-9.49-11.63-8.68Z"/>
    <path class="cls-1" d="M82.39,80.6l.1,54.58c11.47,9.62,12.24,25.8,2.64,35.98-9.66,10.24-26.21,10.52-35.88-.05s-8.7-26.85,2.82-35.75l.03-84.49,101.66-.02.23,29.63-71.61.13ZM63.96,144.56c-5.82,2.07-8.47,8.26-6.73,13.26,2.03,5.85,8.11,8.17,13.21,6.54,6.2-1.99,8.44-7.92,6.65-13.34-1.81-5.47-7.54-8.45-13.13-6.46Z"/>
    <path class="cls-1" d="M332.2,115.8c-31.95-25.44-71.39-38.09-112.62-35.67l-.14-29.06c48.91-1.81,95.76,13.56,133.77,44.32-8.81,4.66-16.02,11.15-21.01,20.41Z"/>
    <path class="cls-2" d="M65.45,329.72c6.15-1.18,11.24,3.42,11.94,8.59.8,5.9-2.85,10.89-8.78,11.91-5.33.91-10.49-2.72-11.59-7.93-1.22-5.73,2.17-11.37,8.44-12.57Z"/>
    <path class="cls-2" d="M368.08,125.54c5.39-2.04,11.26.53,13.32,6.14,1.81,4.93-.31,11.39-6.83,13.5-4.39,1.42-10.55-.78-12.78-6.46-1.91-4.86.55-10.99,6.29-13.17Z"/>
    <path class="cls-2" d="M381.99,343.53c5.97-.81,10.87,3.59,11.63,8.68.89,6-2.91,11.01-8.48,12-5.69,1.02-10.89-2.88-11.93-7.99-1.26-6.16,2.46-11.84,8.78-12.69Z"/>
    <path class="cls-2" d="M63.96,144.56c5.59-1.99,11.32.99,13.13,6.46,1.79,5.42-.45,11.36-6.65,13.34-5.1,1.63-11.18-.69-13.21-6.54-1.74-5.01.91-11.19,6.73-13.26Z"/>
  </g>
</svg>